<svg xmlns="http://www.w3.org/2000/svg" version="1.1" xmlns:xlink="http://www.w3.org/1999/xlink" xmlns:svgjs="http://svgjs.com/svgjs" width="2300" height="1300" preserveAspectRatio="none" viewBox="0 0 1815 1233"><g mask="url(&quot;#SvgjsMask1115&quot;)" fill="none"><path d="M1087.519,1519.87C1185.397,1517.456,1250.461,1431.061,1299.706,1346.439C1349.356,1261.12,1394.78,1160.505,1346.878,1074.192C1298.031,986.177,1188.057,959.137,1087.519,964.106C996.128,968.623,915.43,1018.921,869.067,1097.809C822.024,1177.853,813.714,1274.92,856.391,1357.374C902.789,1447.017,986.611,1522.359,1087.519,1519.87" fill="rgba(209, 231, 251, 0.4)" class="triangle-float3"></path><path d="M228.096,658.583C347.562,655.878,477.812,644.34,542.221,543.687C610.62,436.798,590.541,299.585,528.748,188.746C465.097,74.574,358.709,-14.586,228.096,-19.766C88.698,-25.295,-46.233,42.858,-116.907,163.14C-188.468,284.93,-192.393,442.572,-111.671,558.493C-39.357,662.34,101.583,661.447,228.096,658.583" fill="rgba(209, 231, 251, 0.4)" class="triangle-float3"></path><path d="M762.488,301.031C801.322,301.368,834.374,275.258,853.362,241.381C871.9,208.307,873.765,168.443,855.394,135.276C836.438,101.053,801.576,75.694,762.488,77.316C725.535,78.849,699.679,109.961,682.04,142.469C665.399,173.137,658.522,208.709,674.309,239.825C691.66,274.023,724.141,300.698,762.488,301.031" fill="rgba(209, 231, 251, 0.4)" class="triangle-float2"></path><path d="M1686.536,1074.555C1807.07,1075.202,1940.89,1063.108,2004.032,960.434C2069.291,854.317,2029.137,723.111,1970.142,613.387C1906.905,495.772,1820.012,365.88,1686.536,369.923C1556.459,373.863,1492.219,514.764,1431.205,629.712C1375.569,734.529,1315.816,854.138,1374.889,957.057C1434.123,1060.257,1567.547,1073.916,1686.536,1074.555" fill="rgba(209, 231, 251, 0.4)" class="triangle-float1"></path></g><defs><mask id="SvgjsMask1115"><rect width="1815" height="1233" fill="#ffffff"></rect></mask><style>
            @keyframes float1 {
                0%{transform: translate(0, 0)}
                50%{transform: translate(-10px, 0)}
                100%{transform: translate(0, 0)}
            }

            .triangle-float1 {
                animation: float1 5s infinite;
            }

            @keyframes float2 {
                0%{transform: translate(0, 0)}
                50%{transform: translate(-5px, -5px)}
                100%{transform: translate(0, 0)}
            }

            .triangle-float2 {
                animation: float2 4s infinite;
            }

            @keyframes float3 {
                0%{transform: translate(0, 0)}
                50%{transform: translate(0, -10px)}
                100%{transform: translate(0, 0)}
            }

            .triangle-float3 {
                animation: float3 6s infinite;
            }
        </style></defs></svg>